<svg width="220" height="19" viewBox="0 0 220 19" fill="none" xmlns="http://www.w3.org/2000/svg">
<path d="M7.24902 15H1.67773V5.00586H7.24902V6.03809H2.83984V9.25781H6.98242V10.2832H2.83984V13.9609H7.24902V15ZM14.4268 15V10.1533C14.4268 9.54264 14.2878 9.08691 14.0098 8.78613C13.7318 8.48535 13.2965 8.33496 12.7041 8.33496C11.9202 8.33496 11.346 8.54688 10.9814 8.9707C10.6169 9.39453 10.4346 10.0941 10.4346 11.0693V15H9.2998V7.50781H10.2227L10.4072 8.5332H10.4619C10.6943 8.16406 11.0202 7.87923 11.4395 7.67871C11.8587 7.47363 12.3258 7.37109 12.8408 7.37109C13.7432 7.37109 14.4222 7.58984 14.8779 8.02734C15.3337 8.46029 15.5615 9.15527 15.5615 10.1123V15H14.4268Z" fill="black"/>
<g clip-path="url(#clip0_1220_667)">
<path d="M41 1.5H25V17.5H41V1.5Z" fill="#00247D"/>
<path fill-rule="evenodd" clip-rule="evenodd" d="M31.2046 9.5L24.2725 2.56785L25.7275 0.432159L33 7.70465L40.2725 0.432159L41.7275 2.56785L34.7953 9.5L41.7275 16.4322L40.2725 18.5678L33 11.2954L25.7275 18.5678L24.2725 16.4322L31.2046 9.5Z" fill="white"/>
<path fill-rule="evenodd" clip-rule="evenodd" d="M30.9054 9.5L24.1512 2.74582L25.8488 0.254181L33 7.40543L40.1512 0.254181L41.8488 2.74582L35.0946 9.5L41.8488 16.2542L40.1512 18.7458L33 11.5946L25.8488 18.7458L24.1512 16.2542L30.9054 9.5Z" fill="white"/>
<path fill-rule="evenodd" clip-rule="evenodd" d="M31.4041 9.50001L24.3533 2.44921L25.6467 0.550812L33 7.90414L40.3533 0.550812L41.6467 2.44921L34.5959 9.50001L41.6467 16.5508L40.3533 18.4492L33 11.0959L25.6467 18.4492L24.3533 16.5508L31.4041 9.50001Z" fill="#FF1612"/>
<path fill-rule="evenodd" clip-rule="evenodd" d="M34.6508 11.5V17.5H31.3492V11.5H25V7.5H31.3492V1.5H34.6508V7.5H41V11.5H34.6508Z" fill="white"/>
<path fill-rule="evenodd" clip-rule="evenodd" d="M34.1429 10.8846V17.5H31.8571V10.8846H25V8.11538H31.8571V1.5H34.1429V8.11538H41V10.8846H34.1429Z" fill="#FF1612"/>
</g>
<path d="M64.7109 15L61.3203 6.14062H61.2656C61.3294 6.84245 61.3613 7.67643 61.3613 8.64258V15H60.2881V5.00586H62.0381L65.2031 13.25H65.2578L68.4502 5.00586H70.1865V15H69.0244V8.56055C69.0244 7.82227 69.0563 7.02018 69.1201 6.1543H69.0654L65.6475 15H64.7109ZM71.5742 7.50781H72.791L74.4316 11.7803C74.7917 12.7555 75.015 13.4596 75.1016 13.8926H75.1562C75.2155 13.6602 75.3385 13.2637 75.5254 12.7031C75.7168 12.138 76.3366 10.4062 77.3848 7.50781H78.6016L75.3818 16.0391C75.0628 16.8822 74.6891 17.4792 74.2607 17.8301C73.8369 18.1855 73.3151 18.3633 72.6953 18.3633C72.349 18.3633 72.0072 18.3245 71.6699 18.2471V17.3379C71.9206 17.3926 72.2008 17.4199 72.5107 17.4199C73.29 17.4199 73.846 16.9824 74.1787 16.1074L74.5957 15.041L71.5742 7.50781ZM88.0625 15L87.8369 13.9336H87.7822C87.4085 14.403 87.0348 14.722 86.6611 14.8906C86.292 15.0547 85.8294 15.1367 85.2734 15.1367C84.5306 15.1367 83.9473 14.9453 83.5234 14.5625C83.1042 14.1797 82.8945 13.6351 82.8945 12.9287C82.8945 11.4157 84.1045 10.6227 86.5244 10.5498L87.7959 10.5088V10.0439C87.7959 9.45605 87.6683 9.02311 87.4131 8.74512C87.1624 8.46257 86.7591 8.32129 86.2031 8.32129C85.5788 8.32129 84.8724 8.5127 84.084 8.89551L83.7354 8.02734C84.1045 7.82682 84.5078 7.6696 84.9453 7.55566C85.3874 7.44173 85.8294 7.38477 86.2715 7.38477C87.1647 7.38477 87.8255 7.58301 88.2539 7.97949C88.6868 8.37598 88.9033 9.01172 88.9033 9.88672V15H88.0625ZM85.499 14.2002C86.2054 14.2002 86.7591 14.0065 87.1602 13.6191C87.5658 13.2318 87.7686 12.6895 87.7686 11.9922V11.3154L86.6338 11.3633C85.7314 11.3952 85.0798 11.5365 84.6787 11.7871C84.2822 12.0332 84.084 12.4183 84.084 12.9424C84.084 13.3525 84.207 13.6647 84.4531 13.8789C84.7038 14.0931 85.0524 14.2002 85.499 14.2002ZM94.2422 15.1367C93.1576 15.1367 92.3167 14.804 91.7197 14.1387C91.1273 13.4688 90.8311 12.5231 90.8311 11.3018C90.8311 10.0485 91.1318 9.08008 91.7334 8.39648C92.3395 7.71289 93.2008 7.37109 94.3174 7.37109C94.6774 7.37109 95.0374 7.40983 95.3975 7.4873C95.7575 7.56478 96.04 7.65592 96.2451 7.76074L95.8965 8.72461C95.6458 8.62435 95.3724 8.54232 95.0762 8.47852C94.7799 8.41016 94.5179 8.37598 94.29 8.37598C92.7679 8.37598 92.0068 9.34668 92.0068 11.2881C92.0068 12.2087 92.1914 12.915 92.5605 13.4072C92.9342 13.8994 93.4857 14.1455 94.2148 14.1455C94.8392 14.1455 95.4795 14.0111 96.1357 13.7422V14.7471C95.6344 15.0068 95.0033 15.1367 94.2422 15.1367ZM100.914 15.1367C99.8294 15.1367 98.9886 14.804 98.3916 14.1387C97.7992 13.4688 97.5029 12.5231 97.5029 11.3018C97.5029 10.0485 97.8037 9.08008 98.4053 8.39648C99.0114 7.71289 99.8727 7.37109 100.989 7.37109C101.349 7.37109 101.709 7.40983 102.069 7.4873C102.429 7.56478 102.712 7.65592 102.917 7.76074L102.568 8.72461C102.318 8.62435 102.044 8.54232 101.748 8.47852C101.452 8.41016 101.19 8.37598 100.962 8.37598C99.4398 8.37598 98.6787 9.34668 98.6787 11.2881C98.6787 12.2087 98.8633 12.915 99.2324 13.4072C99.6061 13.8994 100.158 14.1455 100.887 14.1455C101.511 14.1455 102.151 14.0111 102.808 13.7422V14.7471C102.306 15.0068 101.675 15.1367 100.914 15.1367ZM111.059 11.2471C111.059 12.4684 110.751 13.4232 110.136 14.1113C109.521 14.7949 108.671 15.1367 107.586 15.1367C106.916 15.1367 106.321 14.9795 105.802 14.665C105.282 14.3506 104.881 13.8994 104.599 13.3115C104.316 12.7236 104.175 12.0355 104.175 11.2471C104.175 10.0257 104.48 9.07552 105.091 8.39648C105.701 7.71289 106.549 7.37109 107.634 7.37109C108.682 7.37109 109.514 7.71973 110.129 8.41699C110.749 9.11426 111.059 10.0576 111.059 11.2471ZM105.351 11.2471C105.351 12.2041 105.542 12.9333 105.925 13.4346C106.308 13.9359 106.87 14.1865 107.613 14.1865C108.356 14.1865 108.919 13.9382 109.302 13.4414C109.689 12.9401 109.883 12.2087 109.883 11.2471C109.883 10.2946 109.689 9.57227 109.302 9.08008C108.919 8.58333 108.352 8.33496 107.6 8.33496C106.857 8.33496 106.296 8.57878 105.918 9.06641C105.54 9.55404 105.351 10.2809 105.351 11.2471ZM114.121 7.50781V12.3682C114.121 12.9788 114.26 13.4346 114.538 13.7354C114.816 14.0361 115.251 14.1865 115.844 14.1865C116.628 14.1865 117.2 13.9723 117.56 13.5439C117.924 13.1156 118.106 12.416 118.106 11.4453V7.50781H119.241V15H118.305L118.141 13.9951H118.079C117.847 14.3643 117.523 14.6468 117.108 14.8428C116.698 15.0387 116.229 15.1367 115.7 15.1367C114.789 15.1367 114.105 14.9202 113.649 14.4873C113.198 14.0544 112.973 13.3617 112.973 12.4092V7.50781H114.121ZM126.781 15V10.1533C126.781 9.54264 126.642 9.08691 126.364 8.78613C126.086 8.48535 125.651 8.33496 125.059 8.33496C124.275 8.33496 123.701 8.54688 123.336 8.9707C122.971 9.39453 122.789 10.0941 122.789 11.0693V15H121.654V7.50781H122.577L122.762 8.5332H122.816C123.049 8.16406 123.375 7.87923 123.794 7.67871C124.213 7.47363 124.68 7.37109 125.195 7.37109C126.098 7.37109 126.777 7.58984 127.232 8.02734C127.688 8.46029 127.916 9.15527 127.916 10.1123V15H126.781ZM132.674 14.2002C132.874 14.2002 133.068 14.1865 133.255 14.1592C133.442 14.1273 133.59 14.0954 133.699 14.0635V14.9316C133.576 14.9909 133.394 15.0387 133.152 15.0752C132.915 15.1162 132.701 15.1367 132.51 15.1367C131.061 15.1367 130.336 14.3734 130.336 12.8467V8.38965H129.263V7.84277L130.336 7.37109L130.814 5.77148H131.471V7.50781H133.645V8.38965H131.471V12.7988C131.471 13.25 131.578 13.5964 131.792 13.8379C132.006 14.0794 132.3 14.2002 132.674 14.2002Z" fill="black"/>
<path d="M142.955 7.5L146.015 10.5533L149.075 7.5L150.015 8.44L146.015 12.44L142.015 8.44L142.955 7.5Z" fill="#C2C9D1"/>
<path d="M142.955 7.5L146.015 10.5533L149.075 7.5L150.015 8.44L146.015 12.44L142.015 8.44L142.955 7.5Z" fill="black"/>
<path d="M180.825 5.00586V11.4727C180.825 12.612 180.481 13.5075 179.793 14.1592C179.105 14.8109 178.159 15.1367 176.956 15.1367C175.753 15.1367 174.821 14.8086 174.16 14.1523C173.504 13.4961 173.176 12.5938 173.176 11.4453V5.00586H174.338V11.5273C174.338 12.3613 174.566 13.0016 175.021 13.4482C175.477 13.8949 176.147 14.1182 177.031 14.1182C177.874 14.1182 178.524 13.8949 178.979 13.4482C179.435 12.9971 179.663 12.3522 179.663 11.5137V5.00586H180.825ZM189.117 12.3408C189.117 13.2204 188.798 13.9062 188.16 14.3984C187.522 14.8906 186.656 15.1367 185.562 15.1367C184.378 15.1367 183.466 14.984 182.828 14.6787V13.5576C183.238 13.7308 183.685 13.8675 184.168 13.9678C184.651 14.068 185.13 14.1182 185.604 14.1182C186.378 14.1182 186.962 13.9723 187.354 13.6807C187.745 13.3844 187.941 12.9743 187.941 12.4502C187.941 12.1038 187.871 11.8213 187.729 11.6025C187.593 11.3792 187.36 11.1742 187.032 10.9873C186.709 10.8005 186.214 10.5885 185.549 10.3516C184.619 10.0189 183.954 9.62467 183.553 9.16895C183.156 8.71322 182.958 8.11849 182.958 7.38477C182.958 6.61458 183.247 6.00163 183.826 5.5459C184.405 5.09017 185.171 4.8623 186.123 4.8623C187.117 4.8623 188.03 5.0446 188.864 5.40918L188.502 6.4209C187.677 6.07454 186.875 5.90137 186.096 5.90137C185.48 5.90137 185 6.03353 184.653 6.29785C184.307 6.56217 184.134 6.92904 184.134 7.39844C184.134 7.74479 184.198 8.02962 184.325 8.25293C184.453 8.47168 184.667 8.67448 184.968 8.86133C185.273 9.04362 185.738 9.24642 186.362 9.46973C187.41 9.84342 188.131 10.2445 188.522 10.6729C188.919 11.1012 189.117 11.6572 189.117 12.3408ZM199.139 9.90723C199.139 11.557 198.69 12.8193 197.792 13.6943C196.899 14.5648 195.611 15 193.93 15H191.161V5.00586H194.224C195.778 5.00586 196.985 5.43652 197.847 6.29785C198.708 7.15918 199.139 8.3623 199.139 9.90723ZM197.908 9.94824C197.908 8.64486 197.58 7.66276 196.924 7.00195C196.272 6.34115 195.301 6.01074 194.012 6.01074H192.323V13.9951H193.738C195.124 13.9951 196.165 13.6556 196.862 12.9766C197.56 12.293 197.908 11.2835 197.908 9.94824Z" fill="black"/>
<path d="M208.955 7.5L212.015 10.5533L215.075 7.5L216.015 8.44L212.015 12.44L208.015 8.44L208.955 7.5Z" fill="#C2C9D1"/>
<path d="M208.955 7.5L212.015 10.5533L215.075 7.5L216.015 8.44L212.015 12.44L208.015 8.44L208.955 7.5Z" fill="black"/>
<defs>
<clipPath id="clip0_1220_667">
<rect x="25" y="1.5" width="16" height="16" rx="8" fill="white"/>
</clipPath>
</defs>
</svg>
