<svg width="40" height="32" viewBox="0 0 40 32" fill="none" xmlns="http://www.w3.org/2000/svg">
<path fill-rule="evenodd" clip-rule="evenodd" d="M5.94255 13.2439H22.1577L20.6134 22.6098H7.48685L5.94255 13.2439Z" stroke="black" stroke-linecap="round" stroke-linejoin="round"/>
<path fill-rule="evenodd" clip-rule="evenodd" d="M9.36584 27.813C9.94058 27.813 10.4065 27.3471 10.4065 26.7724C10.4065 26.1976 9.94058 25.7317 9.36584 25.7317C8.79111 25.7317 8.3252 26.1976 8.3252 26.7724C8.3252 27.3471 8.79111 27.813 9.36584 27.813Z" stroke="black"/>
<path fill-rule="evenodd" clip-rule="evenodd" d="M18.7317 27.813C19.3064 27.813 19.7723 27.3471 19.7723 26.7724C19.7723 26.1976 19.3064 25.7317 18.7317 25.7317C18.157 25.7317 17.691 26.1976 17.691 26.7724C17.691 27.3471 18.157 27.813 18.7317 27.813Z" stroke="black"/>
<path d="M7.28455 13.2439H3.12195" stroke="black" stroke-linecap="round"/>
<path d="M29.279 8.36523H31.693V9.17383H29.279V11.6699H28.4645V9.17383H26.0622V8.36523H28.4645V5.85742H29.279V8.36523ZM38.5745 6.44922C38.5745 6.99609 38.4202 7.44336 38.1116 7.79102C37.807 8.13867 37.3734 8.37109 36.8109 8.48828V8.53516C37.4984 8.62109 38.0081 8.83984 38.3402 9.19141C38.6722 9.54297 38.8382 10.0039 38.8382 10.5742C38.8382 11.3906 38.555 12.0195 37.9886 12.4609C37.4222 12.8984 36.6175 13.1172 35.5745 13.1172C35.1214 13.1172 34.7054 13.082 34.3265 13.0117C33.9515 12.9453 33.5863 12.8262 33.2308 12.6543V11.7285C33.6019 11.9121 33.9964 12.0527 34.4144 12.1504C34.8363 12.2441 35.2347 12.291 35.6097 12.291C37.0902 12.291 37.8304 11.7109 37.8304 10.5508C37.8304 9.51172 37.014 8.99219 35.3812 8.99219H34.5374V8.1543H35.3929C36.0609 8.1543 36.5902 8.00781 36.9808 7.71484C37.3714 7.41797 37.5667 7.00781 37.5667 6.48438C37.5667 6.06641 37.4222 5.73828 37.1331 5.5C36.848 5.26172 36.4593 5.14258 35.9671 5.14258C35.5921 5.14258 35.2386 5.19336 34.9066 5.29492C34.5745 5.39648 34.1956 5.58398 33.7698 5.85742L33.2777 5.20117C33.6292 4.92383 34.0335 4.70703 34.4905 4.55078C34.9515 4.39062 35.4359 4.31055 35.9437 4.31055C36.7757 4.31055 37.4222 4.50195 37.8831 4.88477C38.3441 5.26367 38.5745 5.78516 38.5745 6.44922Z" fill="#FF0100"/>
</svg>
