<svg width="275" height="22" viewBox="0 0 275 22" fill="none" xmlns="http://www.w3.org/2000/svg">
<g opacity="0.5">
<path opacity="0.5" d="M43.0156 13.9609C43.0156 14.9661 42.651 15.75 41.9219 16.3125C41.1927 16.875 40.2031 17.1562 38.9531 17.1562C37.599 17.1562 36.5573 16.9818 35.8281 16.6328V15.3516C36.2969 15.5495 36.8073 15.7057 37.3594 15.8203C37.9115 15.9349 38.4583 15.9922 39 15.9922C39.8854 15.9922 40.5521 15.8255 41 15.4922C41.4479 15.1536 41.6719 14.6849 41.6719 14.0859C41.6719 13.6901 41.5911 13.3672 41.4297 13.1172C41.2734 12.862 41.0078 12.6276 40.6328 12.4141C40.263 12.2005 39.6979 11.9583 38.9375 11.6875C37.875 11.3073 37.1146 10.8568 36.6562 10.3359C36.2031 9.8151 35.9766 9.13542 35.9766 8.29688C35.9766 7.41667 36.3073 6.71615 36.9688 6.19531C37.6302 5.67448 38.5052 5.41406 39.5938 5.41406C40.7292 5.41406 41.7734 5.6224 42.7266 6.03906L42.3125 7.19531C41.3698 6.79948 40.4531 6.60156 39.5625 6.60156C38.8594 6.60156 38.3099 6.7526 37.9141 7.05469C37.5182 7.35677 37.3203 7.77604 37.3203 8.3125C37.3203 8.70833 37.3932 9.03385 37.5391 9.28906C37.6849 9.53906 37.9297 9.77083 38.2734 9.98438C38.6224 10.1927 39.1536 10.4245 39.8672 10.6797C41.0651 11.1068 41.888 11.5651 42.3359 12.0547C42.7891 12.5443 43.0156 13.1797 43.0156 13.9609ZM48.9334 17.1562C47.6678 17.1562 46.6678 16.7708 45.9334 16C45.2043 15.2292 44.8397 14.1589 44.8397 12.7891C44.8397 11.4089 45.1782 10.3125 45.8553 9.5C46.5376 8.6875 47.4517 8.28125 48.5975 8.28125C49.6704 8.28125 50.5194 8.63542 51.1444 9.34375C51.7694 10.0469 52.0819 10.9766 52.0819 12.1328V12.9531H46.1834C46.2095 13.9583 46.4621 14.7214 46.9412 15.2422C47.4256 15.763 48.1053 16.0234 48.9803 16.0234C49.9022 16.0234 50.8136 15.8307 51.7147 15.4453V16.6016C51.2564 16.7995 50.8215 16.9401 50.41 17.0234C50.0037 17.112 49.5116 17.1562 48.9334 17.1562ZM48.5819 9.36719C47.8944 9.36719 47.3449 9.59115 46.9334 10.0391C46.5272 10.487 46.2876 11.1068 46.2147 11.8984H50.6912C50.6912 11.0807 50.509 10.4557 50.1444 10.0234C49.7798 9.58594 49.259 9.36719 48.5819 9.36719ZM59.7262 17L59.4684 15.7812H59.4059C58.9789 16.3177 58.5518 16.6823 58.1247 16.875C57.7028 17.0625 57.1742 17.1562 56.5387 17.1562C55.6898 17.1562 55.0231 16.9375 54.5387 16.5C54.0596 16.0625 53.82 15.4401 53.82 14.6328C53.82 12.9036 55.2028 11.9974 57.9684 11.9141L59.4216 11.8672V11.3359C59.4216 10.6641 59.2757 10.1693 58.9841 9.85156C58.6976 9.52865 58.2367 9.36719 57.6012 9.36719C56.8877 9.36719 56.0804 9.58594 55.1794 10.0234L54.7809 9.03125C55.2028 8.80208 55.6637 8.6224 56.1637 8.49219C56.669 8.36198 57.1742 8.29688 57.6794 8.29688C58.7002 8.29688 59.4554 8.52344 59.945 8.97656C60.4398 9.42969 60.6872 10.1562 60.6872 11.1562V17H59.7262ZM56.7966 16.0859C57.6039 16.0859 58.2367 15.8646 58.695 15.4219C59.1585 14.9792 59.3903 14.3594 59.3903 13.5625V12.7891L58.0934 12.8438C57.0622 12.8802 56.3174 13.0417 55.8591 13.3281C55.4059 13.6094 55.1794 14.0495 55.1794 14.6484C55.1794 15.1172 55.32 15.474 55.6012 15.7188C55.8877 15.9635 56.2861 16.0859 56.7966 16.0859ZM67.4331 8.28125C67.8133 8.28125 68.1545 8.3125 68.4566 8.375L68.2769 9.57812C67.9227 9.5 67.6102 9.46094 67.3394 9.46094C66.6467 9.46094 66.0529 9.74219 65.5581 10.3047C65.0685 10.8672 64.8237 11.5677 64.8237 12.4062V17H63.5269V8.4375H64.5972L64.7456 10.0234H64.8081C65.1258 9.46615 65.5086 9.03646 65.9566 8.73438C66.4045 8.43229 66.8967 8.28125 67.4331 8.28125ZM73.64 17.1562C72.4004 17.1562 71.4395 16.776 70.7572 16.0156C70.0801 15.25 69.7416 14.1693 69.7416 12.7734C69.7416 11.3411 70.0853 10.2344 70.7728 9.45312C71.4655 8.67188 72.4499 8.28125 73.7259 8.28125C74.1374 8.28125 74.5489 8.32552 74.9603 8.41406C75.3718 8.5026 75.6947 8.60677 75.9291 8.72656L75.5306 9.82812C75.2442 9.71354 74.9317 9.61979 74.5931 9.54688C74.2546 9.46875 73.9551 9.42969 73.6947 9.42969C71.9551 9.42969 71.0853 10.5391 71.0853 12.7578C71.0853 13.8099 71.2962 14.6172 71.7181 15.1797C72.1452 15.7422 72.7754 16.0234 73.6087 16.0234C74.3223 16.0234 75.0541 15.8698 75.8041 15.5625V16.7109C75.2311 17.0078 74.5098 17.1562 73.64 17.1562ZM83.8625 17V11.4609C83.8625 10.763 83.7036 10.2422 83.3859 9.89844C83.0682 9.55469 82.5708 9.38281 81.8937 9.38281C80.9927 9.38281 80.3339 9.6276 79.9172 10.1172C79.5057 10.6068 79.3 11.4089 79.3 12.5234V17H78.0031V4.84375H79.3V8.52344C79.3 8.96615 79.2792 9.33333 79.2375 9.625H79.3156C79.5708 9.21354 79.9328 8.89062 80.4016 8.65625C80.8755 8.41667 81.4146 8.29688 82.0187 8.29688C83.0656 8.29688 83.8495 8.54688 84.3703 9.04688C84.8964 9.54167 85.1594 10.3307 85.1594 11.4141V17H83.8625ZM96.2919 8.29688C97.4169 8.29688 98.2893 8.68229 98.9091 9.45312C99.5341 10.2188 99.8466 11.3047 99.8466 12.7109C99.8466 14.1172 99.5315 15.2109 98.9012 15.9922C98.2762 16.7682 97.4065 17.1562 96.2919 17.1562C95.7346 17.1562 95.2242 17.0547 94.7606 16.8516C94.3023 16.6432 93.9169 16.3255 93.6044 15.8984H93.5106L93.2372 17H92.3075V4.84375H93.6044V7.79688C93.6044 8.45833 93.5835 9.05208 93.5419 9.57812H93.6044C94.2085 8.72396 95.1044 8.29688 96.2919 8.29688ZM96.1044 9.38281C95.219 9.38281 94.5809 9.63802 94.1903 10.1484C93.7997 10.6536 93.6044 11.5078 93.6044 12.7109C93.6044 13.9141 93.8049 14.776 94.2059 15.2969C94.607 15.8125 95.2502 16.0703 96.1356 16.0703C96.9325 16.0703 97.5262 15.7812 97.9169 15.2031C98.3075 14.6198 98.5028 13.7839 98.5028 12.6953C98.5028 11.5807 98.3075 10.75 97.9169 10.2031C97.5262 9.65625 96.9221 9.38281 96.1044 9.38281ZM106.186 8.28125C106.566 8.28125 106.908 8.3125 107.21 8.375L107.03 9.57812C106.676 9.5 106.363 9.46094 106.092 9.46094C105.4 9.46094 104.806 9.74219 104.311 10.3047C103.822 10.8672 103.577 11.5677 103.577 12.4062V17H102.28V8.4375H103.35L103.499 10.0234H103.561C103.879 9.46615 104.262 9.03646 104.71 8.73438C105.158 8.43229 105.65 8.28125 106.186 8.28125ZM114.237 17L113.979 15.7812H113.917C113.489 16.3177 113.062 16.6823 112.635 16.875C112.213 17.0625 111.685 17.1562 111.049 17.1562C110.2 17.1562 109.534 16.9375 109.049 16.5C108.57 16.0625 108.331 15.4401 108.331 14.6328C108.331 12.9036 109.713 11.9974 112.479 11.9141L113.932 11.8672V11.3359C113.932 10.6641 113.786 10.1693 113.495 9.85156C113.208 9.52865 112.747 9.36719 112.112 9.36719C111.398 9.36719 110.591 9.58594 109.69 10.0234L109.292 9.03125C109.713 8.80208 110.174 8.6224 110.674 8.49219C111.18 8.36198 111.685 8.29688 112.19 8.29688C113.211 8.29688 113.966 8.52344 114.456 8.97656C114.95 9.42969 115.198 10.1562 115.198 11.1562V17H114.237ZM111.307 16.0859C112.114 16.0859 112.747 15.8646 113.206 15.4219C113.669 14.9792 113.901 14.3594 113.901 13.5625V12.7891L112.604 12.8438C111.573 12.8802 110.828 13.0417 110.37 13.3281C109.917 13.6094 109.69 14.0495 109.69 14.6484C109.69 15.1172 109.831 15.474 110.112 15.7188C110.398 15.9635 110.797 16.0859 111.307 16.0859ZM123.897 17V11.4609C123.897 10.763 123.738 10.2422 123.42 9.89844C123.103 9.55469 122.605 9.38281 121.928 9.38281C121.032 9.38281 120.376 9.625 119.959 10.1094C119.543 10.5938 119.334 11.3932 119.334 12.5078V17H118.037V8.4375H119.092L119.303 9.60938H119.366C119.631 9.1875 120.004 8.86198 120.483 8.63281C120.962 8.39844 121.496 8.28125 122.084 8.28125C123.116 8.28125 123.892 8.53125 124.412 9.03125C124.933 9.52604 125.194 10.3203 125.194 11.4141V17H123.897ZM133.854 15.8516H133.783C133.184 16.7214 132.289 17.1562 131.096 17.1562C129.976 17.1562 129.104 16.7734 128.479 16.0078C127.859 15.2422 127.549 14.1536 127.549 12.7422C127.549 11.3307 127.862 10.2344 128.487 9.45312C129.112 8.67188 129.981 8.28125 131.096 8.28125C132.257 8.28125 133.148 8.70312 133.768 9.54688H133.869L133.815 8.92969L133.783 8.32812V4.84375H135.08V17H134.026L133.854 15.8516ZM131.26 16.0703C132.145 16.0703 132.786 15.8307 133.182 15.3516C133.583 14.8672 133.783 14.0885 133.783 13.0156V12.7422C133.783 11.5286 133.58 10.6641 133.174 10.1484C132.773 9.6276 132.13 9.36719 131.244 9.36719C130.484 9.36719 129.901 9.66406 129.494 10.2578C129.093 10.8464 128.893 11.6797 128.893 12.7578C128.893 13.8516 129.093 14.6771 129.494 15.2344C129.895 15.7917 130.484 16.0703 131.26 16.0703ZM143.522 14.6641C143.522 15.4609 143.225 16.0755 142.631 16.5078C142.037 16.9401 141.204 17.1562 140.131 17.1562C138.996 17.1562 138.11 16.9766 137.475 16.6172V15.4141C137.886 15.6224 138.326 15.7865 138.795 15.9062C139.269 16.026 139.725 16.0859 140.162 16.0859C140.839 16.0859 141.36 15.9792 141.725 15.7656C142.089 15.5469 142.272 15.2161 142.272 14.7734C142.272 14.4401 142.126 14.1562 141.834 13.9219C141.548 13.6823 140.985 13.401 140.147 13.0781C139.35 12.7812 138.782 12.5234 138.443 12.3047C138.11 12.0807 137.86 11.8281 137.693 11.5469C137.532 11.2656 137.451 10.9297 137.451 10.5391C137.451 9.84115 137.735 9.29167 138.303 8.89062C138.871 8.48438 139.649 8.28125 140.639 8.28125C141.561 8.28125 142.462 8.46875 143.342 8.84375L142.881 9.89844C142.022 9.54427 141.243 9.36719 140.545 9.36719C139.93 9.36719 139.467 9.46354 139.154 9.65625C138.842 9.84896 138.686 10.1146 138.686 10.4531C138.686 10.6823 138.743 10.8776 138.857 11.0391C138.977 11.2005 139.167 11.3542 139.428 11.5C139.688 11.6458 140.188 11.8568 140.928 12.1328C141.943 12.5026 142.628 12.875 142.982 13.25C143.342 13.625 143.522 14.0964 143.522 14.6641ZM147.158 15.1406L147.275 15.3203C147.14 15.8411 146.945 16.4453 146.689 17.1328C146.434 17.8255 146.169 18.4688 145.893 19.0625H144.916C145.057 18.5208 145.21 17.8516 145.377 17.0547C145.549 16.2578 145.669 15.6198 145.736 15.1406H147.158ZM161.205 8.4375V9.25781L159.619 9.44531C159.765 9.6276 159.895 9.86719 160.009 10.1641C160.124 10.4557 160.181 10.7865 160.181 11.1562C160.181 11.9948 159.895 12.6641 159.322 13.1641C158.749 13.6641 157.963 13.9141 156.963 13.9141C156.707 13.9141 156.468 13.8932 156.244 13.8516C155.692 14.1432 155.416 14.5104 155.416 14.9531C155.416 15.1875 155.512 15.362 155.705 15.4766C155.897 15.5859 156.228 15.6406 156.697 15.6406H158.213C159.14 15.6406 159.851 15.8359 160.345 16.2266C160.845 16.6172 161.095 17.1849 161.095 17.9297C161.095 18.8776 160.715 19.599 159.955 20.0938C159.194 20.5938 158.085 20.8438 156.627 20.8438C155.507 20.8438 154.642 20.6354 154.033 20.2188C153.429 19.8021 153.127 19.2135 153.127 18.4531C153.127 17.9323 153.293 17.4818 153.627 17.1016C153.96 16.7214 154.429 16.4635 155.033 16.3281C154.814 16.2292 154.629 16.0755 154.478 15.8672C154.332 15.6589 154.259 15.4167 154.259 15.1406C154.259 14.8281 154.343 14.5547 154.509 14.3203C154.676 14.0859 154.939 13.8594 155.298 13.6406C154.856 13.4583 154.494 13.1484 154.213 12.7109C153.936 12.2734 153.798 11.7734 153.798 11.2109C153.798 10.2734 154.08 9.55208 154.642 9.04688C155.205 8.53646 156.002 8.28125 157.033 8.28125C157.481 8.28125 157.884 8.33333 158.244 8.4375H161.205ZM154.377 18.4375C154.377 18.901 154.572 19.2526 154.963 19.4922C155.353 19.7318 155.913 19.8516 156.642 19.8516C157.731 19.8516 158.535 19.6875 159.056 19.3594C159.582 19.0365 159.845 18.5964 159.845 18.0391C159.845 17.5755 159.702 17.2526 159.416 17.0703C159.129 16.8932 158.59 16.8047 157.798 16.8047H156.244C155.655 16.8047 155.197 16.9453 154.869 17.2266C154.541 17.5078 154.377 17.9115 154.377 18.4375ZM155.08 11.1797C155.08 11.7786 155.249 12.2318 155.588 12.5391C155.926 12.8464 156.397 13 157.002 13C158.267 13 158.9 12.3854 158.9 11.1562C158.9 9.86979 158.259 9.22656 156.978 9.22656C156.369 9.22656 155.9 9.39062 155.572 9.71875C155.244 10.0469 155.08 10.5339 155.08 11.1797ZM166.74 17.1562C165.474 17.1562 164.474 16.7708 163.74 16C163.011 15.2292 162.646 14.1589 162.646 12.7891C162.646 11.4089 162.984 10.3125 163.662 9.5C164.344 8.6875 165.258 8.28125 166.404 8.28125C167.477 8.28125 168.326 8.63542 168.951 9.34375C169.576 10.0469 169.888 10.9766 169.888 12.1328V12.9531H163.99C164.016 13.9583 164.268 14.7214 164.747 15.2422C165.232 15.763 165.912 16.0234 166.787 16.0234C167.708 16.0234 168.62 15.8307 169.521 15.4453V16.6016C169.063 16.7995 168.628 16.9401 168.216 17.0234C167.81 17.112 167.318 17.1562 166.74 17.1562ZM166.388 9.36719C165.701 9.36719 165.151 9.59115 164.74 10.0391C164.333 10.487 164.094 11.1068 164.021 11.8984H168.497C168.497 11.0807 168.315 10.4557 167.951 10.0234C167.586 9.58594 167.065 9.36719 166.388 9.36719ZM177.533 17L177.275 15.7812H177.212C176.785 16.3177 176.358 16.6823 175.931 16.875C175.509 17.0625 174.98 17.1562 174.345 17.1562C173.496 17.1562 172.829 16.9375 172.345 16.5C171.866 16.0625 171.626 15.4401 171.626 14.6328C171.626 12.9036 173.009 11.9974 175.775 11.9141L177.228 11.8672V11.3359C177.228 10.6641 177.082 10.1693 176.79 9.85156C176.504 9.52865 176.043 9.36719 175.408 9.36719C174.694 9.36719 173.887 9.58594 172.986 10.0234L172.587 9.03125C173.009 8.80208 173.47 8.6224 173.97 8.49219C174.475 8.36198 174.98 8.29688 175.486 8.29688C176.506 8.29688 177.262 8.52344 177.751 8.97656C178.246 9.42969 178.493 10.1562 178.493 11.1562V17H177.533ZM174.603 16.0859C175.41 16.0859 176.043 15.8646 176.501 15.4219C176.965 14.9792 177.197 14.3594 177.197 13.5625V12.7891L175.9 12.8438C174.868 12.8802 174.124 13.0417 173.665 13.3281C173.212 13.6094 172.986 14.0495 172.986 14.6484C172.986 15.1172 173.126 15.474 173.408 15.7188C173.694 15.9635 174.092 16.0859 174.603 16.0859ZM185.239 8.28125C185.62 8.28125 185.961 8.3125 186.263 8.375L186.083 9.57812C185.729 9.5 185.416 9.46094 185.146 9.46094C184.453 9.46094 183.859 9.74219 183.364 10.3047C182.875 10.8672 182.63 11.5677 182.63 12.4062V17H181.333V8.4375H182.403L182.552 10.0234H182.614C182.932 9.46615 183.315 9.03646 183.763 8.73438C184.211 8.43229 184.703 8.28125 185.239 8.28125ZM197.606 17L197.348 15.7812H197.286C196.859 16.3177 196.432 16.6823 196.005 16.875C195.583 17.0625 195.054 17.1562 194.419 17.1562C193.57 17.1562 192.903 16.9375 192.419 16.5C191.94 16.0625 191.7 15.4401 191.7 14.6328C191.7 12.9036 193.083 11.9974 195.848 11.9141L197.302 11.8672V11.3359C197.302 10.6641 197.156 10.1693 196.864 9.85156C196.578 9.52865 196.117 9.36719 195.481 9.36719C194.768 9.36719 193.96 9.58594 193.059 10.0234L192.661 9.03125C193.083 8.80208 193.544 8.6224 194.044 8.49219C194.549 8.36198 195.054 8.29688 195.559 8.29688C196.58 8.29688 197.335 8.52344 197.825 8.97656C198.32 9.42969 198.567 10.1562 198.567 11.1562V17H197.606ZM194.677 16.0859C195.484 16.0859 196.117 15.8646 196.575 15.4219C197.039 14.9792 197.27 14.3594 197.27 13.5625V12.7891L195.973 12.8438C194.942 12.8802 194.197 13.0417 193.739 13.3281C193.286 13.6094 193.059 14.0495 193.059 14.6484C193.059 15.1172 193.2 15.474 193.481 15.7188C193.768 15.9635 194.166 16.0859 194.677 16.0859ZM207.266 17V11.4609C207.266 10.763 207.107 10.2422 206.79 9.89844C206.472 9.55469 205.975 9.38281 205.298 9.38281C204.402 9.38281 203.745 9.625 203.329 10.1094C202.912 10.5938 202.704 11.3932 202.704 12.5078V17H201.407V8.4375H202.462L202.673 9.60938H202.735C203.001 9.1875 203.373 8.86198 203.852 8.63281C204.331 8.39844 204.865 8.28125 205.454 8.28125C206.485 8.28125 207.261 8.53125 207.782 9.03125C208.303 9.52604 208.563 10.3203 208.563 11.4141V17H207.266ZM217.223 15.8516H217.153C216.554 16.7214 215.658 17.1562 214.465 17.1562C213.346 17.1562 212.473 16.7734 211.848 16.0078C211.228 15.2422 210.918 14.1536 210.918 12.7422C210.918 11.3307 211.231 10.2344 211.856 9.45312C212.481 8.67188 213.351 8.28125 214.465 8.28125C215.627 8.28125 216.517 8.70312 217.137 9.54688H217.239L217.184 8.92969L217.153 8.32812V4.84375H218.45V17H217.395L217.223 15.8516ZM214.629 16.0703C215.515 16.0703 216.155 15.8307 216.551 15.3516C216.952 14.8672 217.153 14.0885 217.153 13.0156V12.7422C217.153 11.5286 216.95 10.6641 216.543 10.1484C216.142 9.6276 215.499 9.36719 214.614 9.36719C213.853 9.36719 213.27 9.66406 212.864 10.2578C212.463 10.8464 212.262 11.6797 212.262 12.7578C212.262 13.8516 212.463 14.6771 212.864 15.2344C213.265 15.7917 213.853 16.0703 214.629 16.0703ZM232.692 8.4375V9.25781L231.106 9.44531C231.251 9.6276 231.382 9.86719 231.496 10.1641C231.611 10.4557 231.668 10.7865 231.668 11.1562C231.668 11.9948 231.382 12.6641 230.809 13.1641C230.236 13.6641 229.449 13.9141 228.449 13.9141C228.194 13.9141 227.955 13.8932 227.731 13.8516C227.179 14.1432 226.902 14.5104 226.902 14.9531C226.902 15.1875 226.999 15.362 227.192 15.4766C227.384 15.5859 227.715 15.6406 228.184 15.6406H229.699C230.626 15.6406 231.337 15.8359 231.832 16.2266C232.332 16.6172 232.582 17.1849 232.582 17.9297C232.582 18.8776 232.202 19.599 231.442 20.0938C230.681 20.5938 229.572 20.8438 228.113 20.8438C226.994 20.8438 226.129 20.6354 225.52 20.2188C224.916 19.8021 224.613 19.2135 224.613 18.4531C224.613 17.9323 224.78 17.4818 225.113 17.1016C225.447 16.7214 225.916 16.4635 226.52 16.3281C226.301 16.2292 226.116 16.0755 225.965 15.8672C225.819 15.6589 225.746 15.4167 225.746 15.1406C225.746 14.8281 225.83 14.5547 225.996 14.3203C226.163 14.0859 226.426 13.8594 226.785 13.6406C226.343 13.4583 225.981 13.1484 225.699 12.7109C225.423 12.2734 225.285 11.7734 225.285 11.2109C225.285 10.2734 225.567 9.55208 226.129 9.04688C226.692 8.53646 227.488 8.28125 228.52 8.28125C228.968 8.28125 229.371 8.33333 229.731 8.4375H232.692ZM225.863 18.4375C225.863 18.901 226.059 19.2526 226.449 19.4922C226.84 19.7318 227.4 19.8516 228.129 19.8516C229.218 19.8516 230.022 19.6875 230.543 19.3594C231.069 19.0365 231.332 18.5964 231.332 18.0391C231.332 17.5755 231.189 17.2526 230.902 17.0703C230.616 16.8932 230.077 16.8047 229.285 16.8047H227.731C227.142 16.8047 226.684 16.9453 226.356 17.2266C226.027 17.5078 225.863 17.9115 225.863 18.4375ZM226.567 11.1797C226.567 11.7786 226.736 12.2318 227.074 12.5391C227.413 12.8464 227.884 13 228.488 13C229.754 13 230.387 12.3854 230.387 11.1562C230.387 9.86979 229.746 9.22656 228.465 9.22656C227.856 9.22656 227.387 9.39062 227.059 9.71875C226.731 10.0469 226.567 10.5339 226.567 11.1797ZM235.828 8.4375V13.9922C235.828 14.6901 235.987 15.2109 236.305 15.5547C236.622 15.8984 237.12 16.0703 237.797 16.0703C238.693 16.0703 239.346 15.8255 239.758 15.3359C240.174 14.8464 240.383 14.0469 240.383 12.9375V8.4375H241.68V17H240.609L240.422 15.8516H240.352C240.086 16.2734 239.716 16.5964 239.242 16.8203C238.773 17.0443 238.237 17.1562 237.633 17.1562C236.591 17.1562 235.81 16.9089 235.289 16.4141C234.773 15.9193 234.516 15.1276 234.516 14.0391V8.4375H235.828ZM245.894 17H244.598V8.4375H245.894V17ZM244.488 6.11719C244.488 5.82031 244.561 5.60417 244.707 5.46875C244.853 5.32812 245.035 5.25781 245.254 5.25781C245.462 5.25781 245.642 5.32812 245.793 5.46875C245.944 5.60938 246.019 5.82552 246.019 6.11719C246.019 6.40885 245.944 6.6276 245.793 6.77344C245.642 6.91406 245.462 6.98438 245.254 6.98438C245.035 6.98438 244.853 6.91406 244.707 6.77344C244.561 6.6276 244.488 6.40885 244.488 6.11719ZM254.633 15.8516H254.562C253.963 16.7214 253.067 17.1562 251.875 17.1562C250.755 17.1562 249.883 16.7734 249.258 16.0078C248.638 15.2422 248.328 14.1536 248.328 12.7422C248.328 11.3307 248.64 10.2344 249.265 9.45312C249.89 8.67188 250.76 8.28125 251.875 8.28125C253.036 8.28125 253.927 8.70312 254.547 9.54688H254.648L254.593 8.92969L254.562 8.32812V4.84375H255.859V17H254.804L254.633 15.8516ZM252.039 16.0703C252.924 16.0703 253.565 15.8307 253.961 15.3516C254.362 14.8672 254.562 14.0885 254.562 13.0156V12.7422C254.562 11.5286 254.359 10.6641 253.953 10.1484C253.552 9.6276 252.909 9.36719 252.023 9.36719C251.263 9.36719 250.679 9.66406 250.273 10.2578C249.872 10.8464 249.672 11.6797 249.672 12.7578C249.672 13.8516 249.872 14.6771 250.273 15.2344C250.674 15.7917 251.263 16.0703 252.039 16.0703ZM262.394 17.1562C261.128 17.1562 260.128 16.7708 259.394 16C258.665 15.2292 258.3 14.1589 258.3 12.7891C258.3 11.4089 258.639 10.3125 259.316 9.5C259.998 8.6875 260.912 8.28125 262.058 8.28125C263.131 8.28125 263.98 8.63542 264.605 9.34375C265.23 10.0469 265.542 10.9766 265.542 12.1328V12.9531H259.644C259.67 13.9583 259.923 14.7214 260.402 15.2422C260.886 15.763 261.566 16.0234 262.441 16.0234C263.363 16.0234 264.274 15.8307 265.175 15.4453V16.6016C264.717 16.7995 264.282 16.9401 263.871 17.0234C263.464 17.112 262.972 17.1562 262.394 17.1562ZM262.042 9.36719C261.355 9.36719 260.806 9.59115 260.394 10.0391C259.988 10.487 259.748 11.1068 259.675 11.8984H264.152C264.152 11.0807 263.97 10.4557 263.605 10.0234C263.24 9.58594 262.72 9.36719 262.042 9.36719ZM273.445 14.6641C273.445 15.4609 273.148 16.0755 272.554 16.5078C271.96 16.9401 271.127 17.1562 270.054 17.1562C268.919 17.1562 268.033 16.9766 267.398 16.6172V15.4141C267.809 15.6224 268.249 15.7865 268.718 15.9062C269.192 16.026 269.648 16.0859 270.085 16.0859C270.762 16.0859 271.283 15.9792 271.648 15.7656C272.012 15.5469 272.195 15.2161 272.195 14.7734C272.195 14.4401 272.049 14.1562 271.757 13.9219C271.471 13.6823 270.908 13.401 270.07 13.0781C269.273 12.7812 268.705 12.5234 268.367 12.3047C268.033 12.0807 267.783 11.8281 267.617 11.5469C267.455 11.2656 267.374 10.9297 267.374 10.5391C267.374 9.84115 267.658 9.29167 268.226 8.89062C268.794 8.48438 269.572 8.28125 270.562 8.28125C271.484 8.28125 272.385 8.46875 273.265 8.84375L272.804 9.89844C271.945 9.54427 271.166 9.36719 270.468 9.36719C269.854 9.36719 269.39 9.46354 269.077 9.65625C268.765 9.84896 268.609 10.1146 268.609 10.4531C268.609 10.6823 268.666 10.8776 268.781 11.0391C268.9 11.2005 269.091 11.3542 269.351 11.5C269.611 11.6458 270.111 11.8568 270.851 12.1328C271.867 12.5026 272.551 12.875 272.906 13.25C273.265 13.625 273.445 14.0964 273.445 14.6641Z" fill="black"/>
<path d="M12.0101 13.0101L16.6667 17.6667" stroke="black" stroke-linecap="round"/>
<path fill-rule="evenodd" clip-rule="evenodd" d="M8.33333 14.3333C11.0948 14.3333 13.3333 12.0948 13.3333 9.33333C13.3333 6.5719 11.0948 4.33333 8.33333 4.33333C5.5719 4.33333 3.33333 6.5719 3.33333 9.33333C3.33333 12.0948 5.5719 14.3333 8.33333 14.3333Z" stroke="black"/>
</g>
</svg>
